<svg xmlns="http://www.w3.org/2000/svg" xmlns:xlink="http://www.w3.org/1999/xlink" width="80" zoomAndPan="magnify" viewBox="0 0 60 60" height="80" preserveAspectRatio="xMidYMid meet" version="1.0"><defs><clipPath id="7c9ca784e2"><path d="M 0.863281 0 L 59.363281 0 L 59.363281 60 L 0.863281 60 Z M 0.863281 0 " clip-rule="nonzero"/></clipPath></defs><g clip-path="url(#7c9ca784e2)"><path fill="#000000" d="M 14.371094 0 C 14.09375 0 13.832031 0.109375 13.636719 0.304688 L 1.171875 12.714844 C 0.980469 12.910156 0.871094 13.171875 0.871094 13.449219 L 0.871094 56.894531 C 0.871094 58.605469 2.265625 59.996094 3.984375 59.996094 L 47.605469 59.996094 C 49.328125 59.996094 50.722656 58.605469 50.722656 56.894531 L 50.722656 48.691406 L 51.753906 49.71875 C 53.046875 51.007812 55.148438 51.007812 56.445312 49.71875 L 58.058594 48.113281 C 59.355469 46.820312 59.355469 44.730469 58.058594 43.4375 L 50.722656 36.132812 L 50.722656 3.101562 C 50.722656 1.390625 49.328125 0 47.605469 0 Z M 48.644531 34.59375 L 48.644531 3.101562 C 48.644531 2.53125 48.179688 2.070312 47.605469 2.070312 L 15.410156 2.070312 L 15.410156 13.449219 C 15.410156 14.019531 14.945312 14.480469 14.371094 14.480469 L 2.945312 14.480469 L 2.945312 56.894531 C 2.945312 57.464844 3.410156 57.925781 3.984375 57.925781 L 47.605469 57.925781 C 48.179688 57.925781 48.644531 57.464844 48.644531 56.894531 L 48.644531 46.621094 L 43.691406 41.691406 C 42.394531 40.398438 42.394531 38.308594 43.691406 37.015625 L 43.765625 36.945312 L 41.980469 35.167969 C 36.90625 39.511719 29.375 39.511719 24.300781 35.167969 C 24.28125 35.167969 24.257812 35.171875 24.238281 35.171875 L 12.292969 35.171875 C 11.71875 35.171875 11.253906 34.707031 11.253906 34.136719 C 11.253906 33.566406 11.71875 33.101562 12.292969 33.101562 L 22.34375 33.101562 C 21.140625 31.535156 20.328125 29.769531 19.90625 27.929688 L 11.253906 27.929688 C 10.679688 27.929688 10.214844 27.464844 10.214844 26.894531 C 10.214844 26.324219 10.679688 25.859375 11.253906 25.859375 L 19.597656 25.859375 C 19.472656 24.121094 19.6875 22.363281 20.238281 20.6875 L 12.292969 20.6875 C 11.71875 20.6875 11.253906 20.226562 11.253906 19.652344 C 11.253906 19.082031 11.71875 18.621094 12.292969 18.621094 L 21.113281 18.621094 C 21.734375 17.4375 22.542969 16.332031 23.539062 15.339844 C 28.84375 10.058594 37.441406 10.058594 42.742188 15.339844 C 47.796875 20.375 48.035156 28.394531 43.449219 33.707031 L 45.234375 35.480469 L 45.304688 35.410156 C 46.207031 34.511719 47.503906 34.238281 48.644531 34.59375 Z M 13.332031 3.53125 L 4.414062 12.414062 L 13.332031 12.414062 Z M 26.832031 20.6875 C 26.261719 20.6875 25.796875 21.152344 25.796875 21.722656 C 25.796875 22.292969 26.261719 22.757812 26.832031 22.757812 L 39.296875 22.757812 C 39.871094 22.757812 40.335938 22.292969 40.335938 21.722656 C 40.335938 21.152344 39.871094 20.6875 39.296875 20.6875 Z M 25.535156 26.894531 C 24.960938 26.894531 24.496094 27.359375 24.496094 27.929688 C 24.496094 28.5 24.960938 28.964844 25.535156 28.964844 L 40.855469 28.964844 C 41.429688 28.964844 41.894531 28.5 41.894531 27.929688 C 41.894531 27.359375 41.429688 26.894531 40.855469 26.894531 Z M 11.253906 40.34375 C 10.679688 40.34375 10.214844 40.804688 10.214844 41.375 C 10.214844 41.949219 10.679688 42.410156 11.253906 42.410156 L 40.335938 42.410156 C 40.910156 42.410156 41.375 41.949219 41.375 41.375 C 41.375 40.804688 40.910156 40.34375 40.335938 40.34375 Z M 11.253906 48.617188 C 11.253906 48.046875 11.71875 47.582031 12.292969 47.582031 L 39.296875 47.582031 C 39.871094 47.582031 40.335938 48.046875 40.335938 48.617188 C 40.335938 49.1875 39.871094 49.652344 39.296875 49.652344 L 12.292969 49.652344 C 11.71875 49.652344 11.253906 49.1875 11.253906 48.617188 Z M 25.007812 16.800781 C 29.5 12.328125 36.78125 12.328125 41.273438 16.800781 C 45.765625 21.277344 45.765625 28.527344 41.273438 33 C 36.78125 37.476562 29.5 37.476562 25.007812 33 C 20.519531 28.527344 20.519531 21.277344 25.007812 16.800781 Z M 46.773438 36.875 C 47.257812 36.390625 48.042969 36.390625 48.527344 36.875 L 56.589844 44.902344 C 57.074219 45.382812 57.074219 46.167969 56.589844 46.648438 L 54.976562 48.253906 C 54.492188 48.738281 53.707031 48.738281 53.222656 48.253906 L 45.160156 40.226562 C 44.675781 39.746094 44.675781 38.960938 45.160156 38.480469 Z M 46.773438 36.875 " fill-opacity="1" fill-rule="evenodd"/></g></svg>