<svg xmlns="http://www.w3.org/2000/svg" xmlns:xlink="http://www.w3.org/1999/xlink" width="40" zoomAndPan="magnify" viewBox="0 0 60 60" height="40" preserveAspectRatio="xMidYMid meet" version="1.0"><defs><clipPath id="25e83d6746"><path d="M 1 8.585938 L 59 8.585938 L 59 33 L 1 33 Z M 1 8.585938 " clip-rule="nonzero"/></clipPath><clipPath id="36c330019c"><path d="M 0 15 L 60 15 L 60 51.335938 L 0 51.335938 Z M 0 15 " clip-rule="nonzero"/></clipPath></defs><g clip-path="url(#25e83d6746)"><path fill="#000000" d="M 26.074219 30.699219 C 26.636719 31.132812 27.253906 31.460938 27.925781 31.6875 C 28.597656 31.917969 29.285156 32.03125 29.996094 32.03125 C 30.703125 32.03125 31.394531 31.917969 32.066406 31.6875 C 32.738281 31.460938 33.355469 31.132812 33.914062 30.699219 L 58.792969 11.316406 C 58.195312 10.460938 57.433594 9.792969 56.507812 9.308594 C 55.582031 8.828125 54.59375 8.585938 53.550781 8.585938 L 6.449219 8.585938 C 5.339844 8.589844 4.304688 8.863281 3.335938 9.402344 C 2.371094 9.941406 1.59375 10.683594 1.011719 11.628906 Z M 26.074219 30.699219 " fill-opacity="1" fill-rule="nonzero"/></g><g clip-path="url(#36c330019c)"><path fill="#000000" d="M 36.539062 34.09375 C 36.074219 34.449219 35.582031 34.765625 35.066406 35.042969 C 34.546875 35.320312 34.011719 35.554688 33.457031 35.742188 C 32.902344 35.929688 32.335938 36.074219 31.757812 36.167969 C 31.175781 36.261719 30.59375 36.3125 30.007812 36.3125 C 29.421875 36.3125 28.839844 36.261719 28.261719 36.167969 C 27.683594 36.074219 27.117188 35.929688 26.558594 35.742188 C 26.003906 35.554688 25.46875 35.320312 24.953125 35.042969 C 24.433594 34.765625 23.945312 34.449219 23.476562 34.09375 L 0.0273438 16.257812 L 0.0273438 44.984375 C 0.0273438 45.40625 0.0664062 45.824219 0.148438 46.238281 C 0.230469 46.652344 0.351562 47.054688 0.515625 47.441406 C 0.675781 47.832031 0.875 48.203125 1.109375 48.554688 C 1.34375 48.902344 1.609375 49.226562 1.90625 49.527344 C 2.207031 49.824219 2.53125 50.089844 2.878906 50.324219 C 3.230469 50.558594 3.601562 50.757812 3.992188 50.917969 C 4.378906 51.082031 4.78125 51.203125 5.195312 51.285156 C 5.609375 51.367188 6.027344 51.40625 6.449219 51.40625 L 53.550781 51.40625 C 53.972656 51.40625 54.390625 51.367188 54.804688 51.285156 C 55.21875 51.203125 55.621094 51.082031 56.007812 50.917969 C 56.398438 50.757812 56.769531 50.558594 57.121094 50.324219 C 57.46875 50.089844 57.792969 49.824219 58.09375 49.527344 C 58.390625 49.226562 58.65625 48.902344 58.890625 48.554688 C 59.125 48.203125 59.324219 47.832031 59.484375 47.441406 C 59.648438 47.054688 59.769531 46.652344 59.851562 46.238281 C 59.933594 45.824219 59.972656 45.40625 59.972656 44.984375 L 59.972656 15.835938 Z M 36.539062 34.09375 " fill-opacity="1" fill-rule="nonzero"/></g></svg>