<svg xmlns="http://www.w3.org/2000/svg" xmlns:xlink="http://www.w3.org/1999/xlink" width="80" zoomAndPan="magnify" viewBox="0 0 60 60" height="80" preserveAspectRatio="xMidYMid meet" version="1.0"><path fill="#000000" d="M 23.71875 15.210938 C 23.71875 15.210938 23.765625 15.257812 23.765625 15.257812 C 25.359375 16.851562 27.5625 17.835938 30 17.835938 C 32.4375 17.835938 34.640625 16.851562 36.234375 15.257812 C 36.234375 15.257812 36.28125 15.210938 36.28125 15.210938 C 36.28125 15.210938 36.328125 15.164062 36.328125 15.164062 C 37.921875 13.570312 38.90625 11.367188 38.90625 8.929688 C 38.90625 6.492188 37.921875 4.289062 36.328125 2.695312 C 36.328125 2.695312 36.28125 2.648438 36.28125 2.648438 C 36.28125 2.648438 36.234375 2.601562 36.234375 2.601562 C 34.640625 1.007812 32.4375 0.0234375 30 0.0234375 C 27.5625 0.0234375 25.359375 1.007812 23.765625 2.601562 C 23.765625 2.601562 23.71875 2.648438 23.71875 2.648438 C 23.71875 2.648438 23.671875 2.695312 23.671875 2.695312 C 22.078125 4.289062 21.09375 6.492188 21.09375 8.929688 C 21.09375 11.367188 22.078125 13.570312 23.671875 15.164062 C 23.671875 15.164062 23.671875 15.210938 23.71875 15.210938 Z M 23.90625 7.992188 L 23.015625 7.992188 C 23.203125 6.773438 23.671875 5.601562 24.375 4.664062 L 24.984375 5.273438 C 25.171875 5.460938 25.40625 5.554688 25.640625 5.554688 C 25.875 5.554688 26.109375 5.460938 26.296875 5.273438 C 26.671875 4.898438 26.671875 4.335938 26.296875 3.960938 L 25.6875 3.351562 C 26.625 2.648438 27.75 2.132812 29.015625 1.992188 L 29.015625 2.835938 C 29.015625 3.351562 29.4375 3.773438 29.953125 3.773438 C 30.46875 3.773438 30.890625 3.351562 30.890625 2.835938 L 30.890625 1.945312 C 32.109375 2.132812 33.28125 2.601562 34.21875 3.304688 L 33.609375 3.914062 C 33.234375 4.289062 33.234375 4.851562 33.609375 5.226562 C 33.796875 5.414062 34.03125 5.507812 34.265625 5.507812 C 34.5 5.507812 34.734375 5.414062 34.921875 5.226562 L 35.53125 4.617188 C 36.234375 5.554688 36.75 6.679688 36.890625 7.945312 L 36.09375 7.945312 C 35.578125 7.945312 35.15625 8.367188 35.15625 8.882812 C 35.15625 9.398438 35.578125 9.820312 36.09375 9.820312 L 36.984375 9.820312 C 36.796875 11.039062 36.328125 12.210938 35.625 13.148438 L 35.015625 12.539062 C 34.640625 12.164062 34.078125 12.164062 33.703125 12.539062 C 33.328125 12.914062 33.328125 13.476562 33.703125 13.851562 L 34.3125 14.460938 C 33.375 15.164062 32.25 15.679688 30.984375 15.820312 L 30.984375 15.023438 C 30.984375 14.507812 30.5625 14.085938 30.046875 14.085938 C 29.53125 14.085938 29.109375 14.507812 29.109375 15.023438 L 29.109375 15.914062 C 27.890625 15.726562 26.71875 15.257812 25.78125 14.554688 L 26.390625 13.945312 C 26.765625 13.570312 26.765625 13.007812 26.390625 12.632812 C 26.015625 12.257812 25.453125 12.257812 25.078125 12.632812 L 24.46875 13.242188 C 23.765625 12.304688 23.25 11.179688 23.109375 9.914062 L 23.90625 9.914062 C 24.421875 9.914062 24.84375 9.492188 24.84375 8.976562 C 24.84375 8.460938 24.421875 7.992188 23.90625 7.992188 Z M 23.90625 7.992188 " fill-opacity="1" fill-rule="nonzero"/><path fill="#000000" d="M 27.65625 9.867188 L 30 9.867188 C 30.515625 9.867188 30.9375 9.445312 30.9375 8.929688 L 30.9375 6.117188 C 30.9375 5.601562 30.515625 5.179688 30 5.179688 C 29.484375 5.179688 29.0625 5.601562 29.0625 6.117188 L 29.0625 7.992188 L 27.65625 7.992188 C 27.140625 7.992188 26.71875 8.414062 26.71875 8.929688 C 26.71875 9.445312 27.140625 9.867188 27.65625 9.867188 Z M 27.65625 9.867188 " fill-opacity="1" fill-rule="nonzero"/><path fill="#000000" d="M 1.3125 33.257812 C 1.5 33.820312 1.734375 34.382812 2.015625 34.945312 C 1.734375 35.742188 1.875 36.679688 2.53125 37.289062 L 3.5625 38.320312 C 3.984375 38.742188 4.546875 38.976562 5.15625 38.976562 C 5.4375 38.976562 5.671875 38.929688 5.953125 38.835938 C 6.46875 39.117188 7.03125 39.351562 7.640625 39.539062 C 8.015625 40.289062 8.765625 40.851562 9.65625 40.851562 L 11.109375 40.851562 C 12 40.851562 12.796875 40.335938 13.125 39.539062 C 13.6875 39.351562 14.25 39.117188 14.8125 38.835938 C 15.046875 38.929688 15.328125 38.976562 15.609375 38.976562 C 16.21875 38.976562 16.78125 38.742188 17.203125 38.320312 L 18.234375 37.289062 C 18.890625 36.632812 19.03125 35.742188 18.75 34.945312 C 19.03125 34.429688 19.265625 33.867188 19.453125 33.257812 C 20.203125 32.882812 20.765625 32.132812 20.765625 31.242188 L 20.765625 29.789062 C 20.765625 28.898438 20.25 28.101562 19.453125 27.773438 C 19.265625 27.210938 19.03125 26.648438 18.75 26.085938 C 18.84375 25.851562 18.890625 25.570312 18.890625 25.289062 C 18.890625 24.679688 18.65625 24.117188 18.234375 23.695312 L 17.203125 22.664062 C 16.78125 22.242188 16.21875 22.007812 15.609375 22.007812 C 15.328125 22.007812 15.09375 22.054688 14.8125 22.148438 C 14.296875 21.867188 13.734375 21.632812 13.125 21.445312 C 12.75 20.695312 12 20.132812 11.109375 20.132812 L 9.65625 20.132812 C 8.765625 20.132812 7.96875 20.648438 7.640625 21.445312 C 7.078125 21.632812 6.515625 21.867188 5.953125 22.148438 C 5.625 22.101562 5.390625 22.054688 5.109375 22.054688 C 4.5 22.054688 3.9375 22.289062 3.515625 22.710938 L 2.484375 23.742188 C 2.109375 24.117188 1.875 24.679688 1.875 25.289062 C 1.875 25.570312 1.921875 25.804688 2.015625 26.085938 C 1.734375 26.601562 1.5 27.164062 1.3125 27.773438 C 0.515625 28.101562 0 28.851562 0 29.789062 L 0 31.242188 C 0 32.132812 0.515625 32.882812 1.3125 33.257812 Z M 1.875 29.789062 C 1.875 29.601562 2.015625 29.414062 2.25 29.414062 L 2.859375 29.414062 C 3.046875 28.148438 3.5625 26.976562 4.265625 25.992188 L 3.84375 25.570312 C 3.703125 25.429688 3.703125 25.195312 3.84375 25.054688 L 4.875 24.023438 C 4.921875 23.976562 5.015625 23.929688 5.109375 23.929688 C 5.203125 23.929688 5.296875 23.976562 5.34375 24.023438 L 5.765625 24.445312 C 6.75 23.695312 7.921875 23.226562 9.1875 23.039062 L 9.1875 22.429688 C 9.1875 22.242188 9.328125 22.054688 9.5625 22.054688 L 11.015625 22.054688 C 11.203125 22.054688 11.390625 22.195312 11.390625 22.429688 L 11.390625 23.039062 C 12.65625 23.226562 13.828125 23.742188 14.8125 24.445312 L 15.234375 24.023438 C 15.28125 23.976562 15.375 23.929688 15.46875 23.929688 C 15.5625 23.929688 15.65625 23.976562 15.703125 24.023438 L 16.734375 25.054688 C 16.875 25.195312 16.875 25.429688 16.734375 25.570312 L 16.3125 25.992188 C 17.0625 26.976562 17.53125 28.148438 17.71875 29.414062 L 18.328125 29.414062 C 18.515625 29.414062 18.703125 29.554688 18.703125 29.789062 L 18.703125 31.242188 C 18.703125 31.429688 18.5625 31.617188 18.328125 31.617188 L 17.71875 31.617188 C 17.53125 32.882812 17.015625 34.054688 16.3125 35.039062 L 16.734375 35.460938 C 16.875 35.601562 16.875 35.835938 16.734375 35.976562 L 15.703125 37.007812 C 15.703125 37.054688 15.609375 37.054688 15.515625 37.054688 C 15.421875 37.054688 15.328125 37.007812 15.28125 36.960938 L 14.859375 36.539062 C 13.875 37.289062 12.703125 37.757812 11.4375 37.945312 L 11.4375 38.554688 C 11.4375 38.742188 11.296875 38.929688 11.0625 38.929688 L 9.609375 38.929688 C 9.421875 38.929688 9.234375 38.789062 9.234375 38.554688 L 9.234375 37.945312 C 7.96875 37.757812 6.796875 37.242188 5.8125 36.539062 L 5.390625 36.960938 C 5.296875 37.054688 5.203125 37.054688 5.109375 37.054688 C 5.015625 37.054688 4.921875 37.007812 4.875 36.960938 L 3.84375 35.929688 C 3.703125 35.789062 3.703125 35.554688 3.84375 35.414062 L 4.265625 34.992188 C 3.515625 34.007812 3.046875 32.835938 2.859375 31.570312 L 2.25 31.570312 C 2.015625 31.570312 1.875 31.429688 1.875 31.195312 Z M 1.875 29.789062 " fill-opacity="1" fill-rule="nonzero"/><path fill="#000000" d="M 10.3125 36.117188 C 13.40625 36.117188 15.9375 33.585938 15.9375 30.492188 C 15.9375 27.398438 13.40625 24.867188 10.3125 24.867188 C 7.21875 24.867188 4.6875 27.398438 4.6875 30.492188 C 4.6875 33.585938 7.21875 36.117188 10.3125 36.117188 Z M 10.3125 26.742188 C 12.375 26.742188 14.0625 28.429688 14.0625 30.492188 C 14.0625 32.554688 12.375 34.242188 10.3125 34.242188 C 8.25 34.242188 6.5625 32.554688 6.5625 30.492188 C 6.5625 28.429688 8.25 26.742188 10.3125 26.742188 Z M 10.3125 26.742188 " fill-opacity="1" fill-rule="nonzero"/><path fill="#000000" d="M 48.328125 17.835938 L 50.53125 17.835938 C 48.1875 13.945312 44.8125 10.757812 40.734375 8.695312 C 40.734375 8.789062 40.734375 8.835938 40.734375 8.929688 C 40.734375 9.539062 40.6875 10.148438 40.59375 10.710938 C 43.734375 12.445312 46.40625 14.882812 48.328125 17.835938 Z M 48.328125 17.835938 " fill-opacity="1" fill-rule="nonzero"/><path fill="#000000" d="M 57.1875 21.585938 L 55.265625 21.585938 C 55.03125 20.507812 54.09375 19.710938 52.96875 19.710938 L 48.28125 19.710938 C 47.15625 19.710938 46.21875 20.507812 45.984375 21.585938 L 44.0625 21.585938 C 42.515625 21.585938 41.25 22.851562 41.25 24.398438 L 41.25 38.460938 C 41.25 40.007812 42.515625 41.273438 44.0625 41.273438 L 57.1875 41.273438 C 58.734375 41.273438 60 40.007812 60 38.460938 L 60 24.398438 C 60 22.851562 58.734375 21.585938 57.1875 21.585938 Z M 47.8125 22.054688 C 47.8125 21.773438 48 21.585938 48.28125 21.585938 L 52.96875 21.585938 C 53.25 21.585938 53.4375 21.773438 53.4375 22.054688 L 53.4375 22.992188 C 53.4375 23.273438 53.25 23.460938 52.96875 23.460938 L 48.28125 23.460938 C 48 23.460938 47.8125 23.273438 47.8125 22.992188 Z M 58.125 38.460938 C 58.125 38.976562 57.703125 39.398438 57.1875 39.398438 L 44.0625 39.398438 C 43.546875 39.398438 43.125 38.976562 43.125 38.460938 L 43.125 24.398438 C 43.125 23.882812 43.546875 23.460938 44.0625 23.460938 L 45.984375 23.460938 C 46.21875 24.539062 47.15625 25.335938 48.28125 25.335938 L 52.96875 25.335938 C 54.09375 25.335938 55.03125 24.539062 55.265625 23.460938 L 57.1875 23.460938 C 57.703125 23.460938 58.125 23.882812 58.125 24.398438 Z M 58.125 38.460938 " fill-opacity="1" fill-rule="nonzero"/><path fill="#000000" d="M 54.375 27.210938 L 46.875 27.210938 C 46.359375 27.210938 45.9375 27.632812 45.9375 28.148438 C 45.9375 28.664062 46.359375 29.085938 46.875 29.085938 L 54.375 29.085938 C 54.890625 29.085938 55.3125 28.664062 55.3125 28.148438 C 55.3125 27.632812 54.890625 27.210938 54.375 27.210938 Z M 54.375 27.210938 " fill-opacity="1" fill-rule="nonzero"/><path fill="#000000" d="M 54.375 30.960938 L 46.875 30.960938 C 46.359375 30.960938 45.9375 31.382812 45.9375 31.898438 C 45.9375 32.414062 46.359375 32.835938 46.875 32.835938 L 54.375 32.835938 C 54.890625 32.835938 55.3125 32.414062 55.3125 31.898438 C 55.3125 31.382812 54.890625 30.960938 54.375 30.960938 Z M 54.375 30.960938 " fill-opacity="1" fill-rule="nonzero"/><path fill="#000000" d="M 54.375 34.710938 L 46.875 34.710938 C 46.359375 34.710938 45.9375 35.132812 45.9375 35.648438 C 45.9375 36.164062 46.359375 36.585938 46.875 36.585938 L 54.375 36.585938 C 54.890625 36.585938 55.3125 36.164062 55.3125 35.648438 C 55.3125 35.132812 54.890625 34.710938 54.375 34.710938 Z M 54.375 34.710938 " fill-opacity="1" fill-rule="nonzero"/><path fill="#000000" d="M 11.015625 18.304688 C 11.109375 18.304688 11.203125 18.304688 11.296875 18.304688 C 13.265625 15.164062 16.03125 12.539062 19.3125 10.710938 C 19.265625 10.148438 19.21875 9.539062 19.21875 8.929688 C 19.21875 8.835938 19.21875 8.789062 19.21875 8.695312 C 15 10.851562 11.484375 14.226562 9.140625 18.351562 C 9.28125 18.351562 9.421875 18.304688 9.5625 18.304688 Z M 11.015625 18.304688 " fill-opacity="1" fill-rule="nonzero"/><path fill="#000000" d="M 49.96875 43.148438 L 47.71875 43.148438 C 46.21875 45.210938 44.34375 46.945312 42.1875 48.398438 C 40.875 47.835938 39.515625 47.226562 38.484375 46.804688 C 37.875 46.523438 37.40625 46.335938 37.078125 46.195312 L 36.28125 43.617188 C 38.203125 41.179688 39.375 37.757812 39.375 34.617188 C 39.375 28.992188 35.390625 24.398438 30.46875 24.398438 C 25.546875 24.398438 21.5625 28.992188 21.5625 34.617188 C 21.5625 37.757812 22.734375 41.179688 24.65625 43.617188 L 23.859375 46.148438 C 23.578125 46.289062 23.0625 46.476562 22.453125 46.757812 C 21.28125 47.273438 19.6875 47.976562 18.1875 48.585938 C 15.703125 46.992188 13.546875 44.976562 11.90625 42.539062 C 11.625 42.585938 11.34375 42.632812 11.015625 42.632812 L 9.703125 42.632812 C 11.390625 45.304688 13.546875 47.601562 16.125 49.429688 C 15 49.898438 14.15625 50.273438 14.015625 50.320312 C 13.734375 50.414062 13.5 50.648438 13.453125 50.929688 L 11.25 58.757812 C 11.15625 59.039062 11.25 59.367188 11.390625 59.601562 C 11.53125 59.835938 11.859375 59.976562 12.140625 59.976562 L 48.703125 59.976562 C 48.984375 59.976562 49.265625 59.835938 49.453125 59.601562 C 49.640625 59.367188 49.6875 59.085938 49.59375 58.757812 L 47.390625 50.929688 C 47.296875 50.648438 47.109375 50.414062 46.828125 50.320312 C 46.6875 50.273438 45.5625 49.804688 44.15625 49.148438 C 46.453125 47.554688 48.421875 45.492188 49.96875 43.148438 Z M 23.4375 34.617188 C 23.4375 30.023438 26.578125 26.273438 30.46875 26.273438 C 34.359375 26.273438 37.5 30.023438 37.5 34.617188 C 37.5 39.210938 34.359375 45.023438 30.46875 45.023438 C 26.578125 45.023438 23.4375 39.257812 23.4375 34.617188 Z M 45.75 51.960938 L 47.484375 58.148438 L 13.40625 58.148438 L 15.140625 51.960938 C 15.984375 51.585938 18.046875 50.742188 23.15625 48.492188 C 25.03125 47.695312 25.03125 47.648438 25.171875 47.601562 C 25.3125 47.460938 25.453125 47.320312 25.5 47.132812 L 26.109375 45.164062 C 27.375 46.242188 28.875 46.898438 30.421875 46.898438 C 31.96875 46.898438 33.46875 46.242188 34.734375 45.164062 L 35.34375 47.132812 C 35.390625 47.320312 35.53125 47.507812 35.671875 47.601562 C 35.765625 47.695312 35.8125 47.695312 37.640625 48.492188 C 42.84375 50.695312 44.90625 51.585938 45.75 51.960938 Z M 45.75 51.960938 " fill-opacity="1" fill-rule="nonzero"/></svg>