<svg xmlns="http://www.w3.org/2000/svg" xmlns:xlink="http://www.w3.org/1999/xlink" width="80" zoomAndPan="magnify" viewBox="0 0 60 60" height="80" preserveAspectRatio="xMidYMid meet" version="1.0"><path fill="#000000" d="M 30 60 C 21.988281 60 14.453125 56.878906 8.785156 51.214844 C 3.121094 45.546875 0 38.011719 0 30 C 0 21.988281 3.121094 14.453125 8.785156 8.785156 C 14.453125 3.121094 21.988281 0 30 0 C 38.011719 0 45.546875 3.121094 51.214844 8.785156 C 56.878906 14.453125 60 21.988281 60 30 C 60 38.011719 56.878906 45.546875 51.214844 51.214844 C 45.546875 56.878906 38.011719 60 30 60 Z M 30 1.875 C 14.492188 1.875 1.875 14.492188 1.875 30 C 1.875 45.507812 14.492188 58.125 30 58.125 C 45.507812 58.125 58.125 45.507812 58.125 30 C 58.125 14.492188 45.507812 1.875 30 1.875 Z M 30 1.875 " fill-opacity="1" fill-rule="nonzero"/><path fill="#000000" d="M 30 56.25 C 22.988281 56.25 16.394531 53.519531 11.4375 48.5625 C 6.480469 43.605469 3.75 37.011719 3.75 30 C 3.75 22.988281 6.480469 16.394531 11.4375 11.4375 C 16.394531 6.480469 22.988281 3.75 30 3.75 C 37.011719 3.75 43.605469 6.480469 48.5625 11.4375 C 53.519531 16.394531 56.25 22.988281 56.25 30 C 56.25 37.011719 53.519531 43.605469 48.5625 48.5625 C 43.605469 53.519531 37.011719 56.25 30 56.25 Z M 30 5.625 C 16.558594 5.625 5.625 16.558594 5.625 30 C 5.625 43.441406 16.558594 54.375 30 54.375 C 43.441406 54.375 54.375 43.441406 54.375 30 C 54.375 16.558594 43.441406 5.625 30 5.625 Z M 30 5.625 " fill-opacity="1" fill-rule="nonzero"/><path fill="#000000" d="M 19.6875 39.375 C 15.550781 39.375 12.1875 36.011719 12.1875 31.875 C 12.1875 27.738281 15.550781 24.375 19.6875 24.375 C 23.824219 24.375 27.1875 27.738281 27.1875 31.875 C 27.1875 36.011719 23.824219 39.375 19.6875 39.375 Z M 19.6875 26.25 C 16.585938 26.25 14.0625 28.773438 14.0625 31.875 C 14.0625 34.976562 16.585938 37.5 19.6875 37.5 C 22.789062 37.5 25.3125 34.976562 25.3125 31.875 C 25.3125 28.773438 22.789062 26.25 19.6875 26.25 Z M 19.6875 26.25 " fill-opacity="1" fill-rule="nonzero"/><path fill="#000000" d="M 13.125 32.8125 C 12.605469 32.8125 12.1875 32.394531 12.1875 31.875 L 12.1875 28.125 C 12.1875 20.371094 18.496094 14.0625 26.25 14.0625 C 26.769531 14.0625 27.1875 14.480469 27.1875 15 C 27.1875 15.519531 26.769531 15.9375 26.25 15.9375 C 19.53125 15.9375 14.0625 21.40625 14.0625 28.125 L 14.0625 31.875 C 14.0625 32.394531 13.644531 32.8125 13.125 32.8125 Z M 13.125 32.8125 " fill-opacity="1" fill-rule="nonzero"/><path fill="#000000" d="M 37.5 39.375 C 32.847656 39.375 29.0625 35.589844 29.0625 30.9375 C 29.0625 26.285156 32.847656 22.5 37.5 22.5 C 42.152344 22.5 45.9375 26.285156 45.9375 30.9375 C 45.9375 35.589844 42.152344 39.375 37.5 39.375 Z M 37.5 24.375 C 33.882812 24.375 30.9375 27.320312 30.9375 30.9375 C 30.9375 34.554688 33.882812 37.5 37.5 37.5 C 41.117188 37.5 44.0625 34.554688 44.0625 30.9375 C 44.0625 27.320312 41.117188 24.375 37.5 24.375 Z M 37.5 24.375 " fill-opacity="1" fill-rule="nonzero"/><path fill="#000000" d="M 46.875 24.375 L 37.5 24.375 C 36.980469 24.375 36.5625 23.957031 36.5625 23.4375 C 36.5625 22.917969 36.980469 22.5 37.5 22.5 L 46.875 22.5 C 47.394531 22.5 47.8125 22.917969 47.8125 23.4375 C 47.8125 23.957031 47.394531 24.375 46.875 24.375 Z M 46.875 24.375 " fill-opacity="1" fill-rule="nonzero"/><path fill="#000000" d="M 46.875 43.125 L 13.125 43.125 C 12.605469 43.125 12.1875 42.707031 12.1875 42.1875 C 12.1875 41.667969 12.605469 41.25 13.125 41.25 L 46.875 41.25 C 47.394531 41.25 47.8125 41.667969 47.8125 42.1875 C 47.8125 42.707031 47.394531 43.125 46.875 43.125 Z M 46.875 43.125 " fill-opacity="1" fill-rule="nonzero"/><path fill="#000000" d="M 42.1875 48.75 L 17.8125 48.75 C 17.292969 48.75 16.875 48.332031 16.875 47.8125 C 16.875 47.292969 17.292969 46.875 17.8125 46.875 L 42.1875 46.875 C 42.707031 46.875 43.125 47.292969 43.125 47.8125 C 43.125 48.332031 42.707031 48.75 42.1875 48.75 Z M 42.1875 48.75 " fill-opacity="1" fill-rule="nonzero"/></svg>