<svg xmlns="http://www.w3.org/2000/svg" xmlns:xlink="http://www.w3.org/1999/xlink" width="40" zoomAndPan="magnify" viewBox="0 0 60 60" height="40" preserveAspectRatio="xMidYMid meet" version="1.0"><defs><clipPath id="6379ae1b70"><path d="M 9.414062 0 L 50.664062 0 L 50.664062 59 L 9.414062 59 Z M 9.414062 0 " clip-rule="nonzero"/></clipPath></defs><g clip-path="url(#6379ae1b70)"><path fill="#ffffff" d="M 29.996094 0.0234375 C 41.363281 0.0234375 50.582031 9.242188 50.582031 20.609375 C 50.582031 24.566406 49.464844 28.257812 47.53125 31.394531 C 45.210938 35.238281 42.890625 39.082031 40.570312 42.925781 C 37.746094 47.515625 35.460938 51.234375 32.632812 55.828125 C 30.144531 59.875 29.976562 59.976562 27.472656 55.90625 C 24.660156 51.335938 22.296875 47.492188 19.488281 42.925781 C 17.171875 39.125 14.859375 35.324219 12.542969 31.523438 C 10.5625 28.359375 9.414062 24.621094 9.414062 20.609375 C 9.414062 9.242188 18.628906 0.0234375 29.996094 0.0234375 Z M 29.996094 10.34375 C 35.09375 10.34375 39.226562 14.476562 39.226562 19.574219 C 39.226562 24.667969 35.09375 28.800781 29.996094 28.800781 C 24.898438 28.800781 20.769531 24.667969 20.769531 19.574219 C 20.769531 14.476562 24.902344 10.34375 29.996094 10.34375 Z M 29.996094 10.34375 " fill-opacity="1" fill-rule="evenodd"/></g></svg>