<svg xmlns="http://www.w3.org/2000/svg" xmlns:xlink="http://www.w3.org/1999/xlink" width="80" zoomAndPan="magnify" viewBox="0 0 60 60" height="80" preserveAspectRatio="xMidYMid meet" version="1.0"><path fill="#100f0d" d="M 28.808594 22.765625 C 29.703125 22.765625 30.429688 22.039062 30.429688 21.144531 C 30.429688 20.25 29.703125 19.523438 28.808594 19.523438 C 22.464844 19.523438 17.300781 24.699219 17.300781 31.0625 C 17.300781 37.425781 22.464844 42.601562 28.808594 42.601562 C 35.15625 42.601562 40.320312 37.425781 40.320312 31.0625 C 40.320312 30.167969 39.59375 29.441406 38.703125 29.441406 C 37.808594 29.441406 37.085938 30.167969 37.085938 31.0625 C 37.085938 35.636719 33.371094 39.359375 28.808594 39.359375 C 24.25 39.359375 20.535156 35.636719 20.535156 31.0625 C 20.535156 26.488281 24.25 22.765625 28.808594 22.765625 " fill-opacity="1" fill-rule="nonzero"/><path fill="#100f0d" d="M 28.808594 11.203125 C 17.886719 11.203125 9 20.113281 9 31.0625 C 9 42.011719 17.886719 50.921875 28.808594 50.921875 C 39.734375 50.921875 48.617188 42.011719 48.617188 31.0625 C 48.617188 30.167969 47.894531 29.441406 47 29.441406 C 46.109375 29.441406 45.382812 30.167969 45.382812 31.0625 C 45.382812 40.226562 37.949219 47.679688 28.808594 47.679688 C 19.671875 47.679688 12.238281 40.226562 12.238281 31.0625 C 12.238281 21.898438 19.671875 14.445312 28.808594 14.445312 C 29.703125 14.445312 30.429688 13.71875 30.429688 12.824219 C 30.429688 11.929688 29.703125 11.203125 28.808594 11.203125 " fill-opacity="1" fill-rule="nonzero"/><path fill="#100f0d" d="M 56.011719 29.441406 C 55.117188 29.441406 54.394531 30.167969 54.394531 31.0625 C 54.394531 45.203125 42.917969 56.710938 28.808594 56.710938 C 14.703125 56.710938 3.226562 45.203125 3.226562 31.0625 C 3.226562 16.917969 14.703125 5.414062 28.808594 5.414062 C 29.703125 5.414062 30.429688 4.6875 30.429688 3.792969 C 30.429688 2.894531 29.703125 2.167969 28.808594 2.167969 C 12.921875 2.167969 -0.0078125 15.132812 -0.0078125 31.0625 C -0.0078125 46.996094 12.921875 59.957031 28.808594 59.957031 C 44.703125 59.957031 57.628906 46.996094 57.628906 31.0625 C 57.628906 30.167969 56.902344 29.441406 56.011719 29.441406 " fill-opacity="1" fill-rule="nonzero"/><path fill="#100f0d" d="M 49.847656 16.984375 L 46.230469 16.117188 L 51.46875 10.863281 L 55.085938 11.730469 Z M 43.074219 10.199219 L 48.316406 4.941406 L 49.136719 8.390625 L 43.898438 13.644531 Z M 59.832031 10.386719 C 59.675781 9.820312 59.222656 9.386719 58.652344 9.25 L 52.308594 7.730469 L 50.792969 1.367188 C 50.65625 0.796875 50.222656 0.34375 49.660156 0.183594 C 49.089844 0.03125 48.492188 0.183594 48.078125 0.597656 L 40.148438 8.542969 C 39.75 8.945312 39.585938 9.519531 39.71875 10.070312 L 41.210938 16.335938 L 27.667969 29.914062 C 27.035156 30.550781 27.035156 31.574219 27.667969 32.207031 C 27.984375 32.523438 28.394531 32.683594 28.808594 32.683594 C 29.226562 32.683594 29.636719 32.523438 29.953125 32.207031 L 43.363281 18.765625 L 49.976562 20.351562 C 50.101562 20.382812 50.226562 20.394531 50.351562 20.394531 C 50.777344 20.394531 51.1875 20.230469 51.496094 19.921875 L 59.421875 11.972656 C 59.835938 11.558594 59.992188 10.953125 59.832031 10.386719 " fill-opacity="1" fill-rule="nonzero"/></svg>