<svg xmlns="http://www.w3.org/2000/svg" xmlns:xlink="http://www.w3.org/1999/xlink" width="80" zoomAndPan="magnify" viewBox="0 0 60 60" height="80" preserveAspectRatio="xMidYMid meet" version="1.0"><path fill="#000000" d="M 45.898438 35.972656 C 44.925781 35.402344 43.726562 35.414062 42.757812 35.992188 L 37.847656 38.914062 C 36.75 39.570312 35.375 39.496094 34.367188 38.707031 C 32.625 37.347656 29.820312 35.058594 27.378906 32.617188 C 24.9375 30.175781 22.648438 27.371094 21.289062 25.628906 C 20.5 24.621094 20.425781 23.246094 21.078125 22.148438 L 24.003906 17.238281 C 24.582031 16.265625 24.589844 15.058594 24.015625 14.085938 L 16.8125 1.777344 C 16.113281 0.589844 14.726562 0.00390625 13.386719 0.332031 C 12.082031 0.648438 10.390625 1.421875 8.617188 3.195312 C 3.0625 8.75 0.113281 18.117188 20.996094 39.003906 C 41.882812 59.886719 51.246094 56.941406 56.804688 51.382812 C 58.582031 49.605469 59.351562 47.910156 59.671875 46.605469 C 59.996094 45.265625 59.417969 43.890625 58.230469 43.191406 C 55.265625 41.457031 48.867188 37.710938 45.898438 35.972656 Z M 45.898438 35.972656 " fill-opacity="1" fill-rule="nonzero"/></svg>