<svg xmlns="http://www.w3.org/2000/svg" xmlns:xlink="http://www.w3.org/1999/xlink" width="80" zoomAndPan="magnify" viewBox="0 0 60 60" height="80" preserveAspectRatio="xMidYMid meet" version="1.0"><path fill="#000000" d="M 30 0 C 13.429688 0 0 13.429688 0 30 C 0 46.570312 13.429688 60 30 60 C 46.570312 60 60 46.570312 60 30 C 60 13.429688 46.570312 0 30 0 Z M 37.757812 42 L 27.878906 32.121094 C 27.316406 31.558594 27 30.796875 27 30 L 27 15 C 27 13.34375 28.34375 12 30 12 C 31.65625 12 33 13.34375 33 15 L 33 28.757812 L 42 37.757812 C 43.171875 38.929688 43.171875 40.828125 42 42 C 40.828125 43.171875 38.929688 43.171875 37.757812 42 Z M 37.757812 42 " fill-opacity="1" fill-rule="nonzero"/></svg>