<svg xmlns="http://www.w3.org/2000/svg" xmlns:xlink="http://www.w3.org/1999/xlink" width="40" zoomAndPan="magnify" viewBox="0 0 60 60" height="40" preserveAspectRatio="xMidYMid meet" version="1.0"><path fill="#000000" d="M 30.011719 2.863281 C 15.042969 2.863281 2.867188 15.039062 2.867188 30.007812 C 2.867188 44.976562 15.042969 57.152344 30.011719 57.152344 C 44.976562 57.152344 57.15625 44.976562 57.15625 30.007812 C 57.15625 15.039062 44.976562 2.863281 30.011719 2.863281 Z M 30.011719 60.019531 C 13.460938 60.019531 0 46.554688 0 30.007812 C 0 13.460938 13.460938 -0.00390625 30.011719 -0.00390625 C 46.558594 -0.00390625 60.019531 13.460938 60.019531 30.007812 C 60.019531 46.554688 46.558594 60.019531 30.011719 60.019531 " fill-opacity="1" fill-rule="nonzero"/><path fill="#000000" d="M 38.300781 39.734375 C 37.933594 39.734375 37.570312 39.59375 37.289062 39.3125 L 28.996094 31.023438 C 28.726562 30.753906 28.578125 30.386719 28.578125 30.007812 L 28.578125 13.34375 C 28.578125 12.550781 29.21875 11.90625 30.011719 11.90625 C 30.800781 11.90625 31.441406 12.550781 31.441406 13.34375 L 31.441406 29.414062 L 39.316406 37.289062 C 39.875 37.847656 39.875 38.753906 39.316406 39.3125 C 39.035156 39.59375 38.667969 39.734375 38.300781 39.734375 " fill-opacity="1" fill-rule="nonzero"/><path fill="#000000" d="M 42.96875 10.429688 L 43.207031 10.011719 C 43.601562 9.328125 43.367188 8.453125 42.683594 8.058594 C 41.996094 7.660156 41.121094 7.894531 40.726562 8.582031 L 40.484375 9 C 40.089844 9.683594 40.324219 10.558594 41.011719 10.957031 C 41.234375 11.085938 41.484375 11.148438 41.722656 11.148438 C 42.21875 11.148438 42.703125 10.890625 42.96875 10.429688 Z M 19.292969 51.433594 L 19.535156 51.019531 C 19.929688 50.332031 19.695312 49.457031 19.007812 49.058594 C 18.324219 48.664062 17.445312 48.898438 17.050781 49.585938 L 16.8125 50.003906 C 16.414062 50.6875 16.652344 51.566406 17.335938 51.960938 C 17.5625 52.089844 17.808594 52.152344 18.050781 52.152344 C 18.546875 52.152344 19.027344 51.894531 19.292969 51.433594 Z M 51.019531 19.53125 L 51.4375 19.292969 C 52.121094 18.898438 52.355469 18.019531 51.960938 17.335938 C 51.566406 16.648438 50.6875 16.414062 50.003906 16.808594 L 49.585938 17.050781 C 48.902344 17.445312 48.667969 18.324219 49.0625 19.007812 C 49.328125 19.46875 49.808594 19.722656 50.304688 19.722656 C 50.550781 19.722656 50.792969 19.660156 51.019531 19.53125 Z M 10.015625 43.207031 L 10.429688 42.964844 C 11.117188 42.570312 11.351562 41.695312 10.957031 41.007812 C 10.5625 40.320312 9.683594 40.089844 9 40.484375 L 8.582031 40.726562 C 7.898438 41.121094 7.660156 42 8.058594 42.683594 C 8.324219 43.140625 8.804688 43.398438 9.300781 43.398438 C 9.546875 43.398438 9.789062 43.335938 10.015625 43.207031 Z M 55.355469 30.007812 C 55.355469 29.214844 54.714844 28.578125 53.925781 28.578125 L 53.441406 28.578125 C 52.652344 28.578125 52.011719 29.214844 52.011719 30.007812 C 52.011719 30.800781 52.652344 31.441406 53.441406 31.441406 L 53.925781 31.441406 C 54.714844 31.441406 55.355469 30.800781 55.355469 30.007812 Z M 8.007812 30.007812 C 8.007812 29.214844 7.367188 28.578125 6.574219 28.578125 L 6.09375 28.578125 C 5.304688 28.578125 4.660156 29.214844 4.660156 30.007812 C 4.660156 30.800781 5.304688 31.441406 6.09375 31.441406 L 6.574219 31.441406 C 7.367188 31.441406 8.007812 30.800781 8.007812 30.007812 Z M 51.960938 42.683594 C 52.355469 42 52.121094 41.121094 51.4375 40.726562 L 51.019531 40.484375 C 50.335938 40.089844 49.460938 40.324219 49.0625 41.007812 C 48.667969 41.695312 48.902344 42.570312 49.585938 42.964844 L 50.003906 43.207031 C 50.226562 43.335938 50.476562 43.398438 50.71875 43.398438 C 51.210938 43.398438 51.695312 43.140625 51.960938 42.683594 Z M 10.957031 19.007812 C 11.351562 18.324219 11.117188 17.445312 10.429688 17.050781 L 10.015625 16.808594 C 9.332031 16.414062 8.453125 16.648438 8.058594 17.335938 C 7.660156 18.019531 7.898438 18.898438 8.582031 19.292969 L 9 19.53125 C 9.222656 19.660156 9.472656 19.722656 9.710938 19.722656 C 10.210938 19.722656 10.691406 19.46875 10.957031 19.007812 Z M 42.683594 51.960938 C 43.367188 51.566406 43.601562 50.6875 43.207031 50.003906 L 42.96875 49.585938 C 42.574219 48.898438 41.695312 48.664062 41.011719 49.058594 C 40.324219 49.457031 40.089844 50.332031 40.488281 51.019531 L 40.726562 51.433594 C 40.992188 51.894531 41.472656 52.152344 41.96875 52.152344 C 42.210938 52.152344 42.457031 52.089844 42.683594 51.960938 Z M 19.007812 10.957031 C 19.695312 10.558594 19.929688 9.683594 19.535156 9 L 19.292969 8.582031 C 18.898438 7.894531 18.019531 7.660156 17.335938 8.058594 C 16.652344 8.453125 16.414062 9.328125 16.808594 10.011719 L 17.050781 10.429688 C 17.316406 10.890625 17.796875 11.148438 18.292969 11.148438 C 18.539062 11.148438 18.78125 11.085938 19.007812 10.957031 Z M 31.441406 53.921875 L 31.441406 53.441406 C 31.441406 52.652344 30.800781 52.007812 30.011719 52.007812 C 29.21875 52.007812 28.578125 52.652344 28.578125 53.441406 L 28.578125 53.921875 C 28.578125 54.714844 29.21875 55.355469 30.011719 55.355469 C 30.800781 55.355469 31.441406 54.714844 31.441406 53.921875 Z M 30.011719 8.007812 C 29.21875 8.007812 28.578125 7.367188 28.578125 6.574219 L 28.578125 6.09375 C 28.578125 5.300781 29.21875 4.660156 30.011719 4.660156 C 30.800781 4.660156 31.441406 5.300781 31.441406 6.09375 L 31.441406 6.574219 C 31.441406 7.367188 30.800781 8.007812 30.011719 8.007812 " fill-opacity="1" fill-rule="nonzero"/></svg>