<svg xmlns="http://www.w3.org/2000/svg" xmlns:xlink="http://www.w3.org/1999/xlink" width="80" zoomAndPan="magnify" viewBox="0 0 60 60" height="80" preserveAspectRatio="xMidYMid meet" version="1.0"><path fill="#000000" d="M 5.886719 30 C 5.886719 26.664062 6.558594 23.433594 7.886719 20.402344 L 6.050781 19.601562 C 4.613281 22.886719 3.882812 26.386719 3.882812 30 C 3.882812 36.765625 6.472656 43.175781 11.171875 48.042969 L 12.613281 46.65625 C 8.277344 42.160156 5.886719 36.246094 5.886719 30 " fill-opacity="1" fill-rule="nonzero"/><path fill="#000000" d="M 55.691406 18.324219 L 54.660156 17.292969 L 53.242188 18.707031 L 54.277344 19.738281 C 52.792969 20.953125 50.957031 21.75 48.945312 21.949219 L 48.945312 20 L 46.941406 20 L 46.941406 21.949219 C 44.929688 21.75 43.09375 20.953125 41.609375 19.738281 L 42.644531 18.707031 L 41.226562 17.292969 L 40.195312 18.324219 C 38.980469 16.84375 38.179688 15.007812 37.980469 13 L 39.933594 13 L 39.933594 11 L 37.980469 11 C 38.179688 8.992188 38.980469 7.15625 40.195312 5.675781 L 41.226562 6.707031 L 42.644531 5.292969 L 41.609375 4.261719 C 43.09375 3.046875 44.929688 2.25 46.941406 2.050781 L 46.941406 4 L 48.945312 4 L 48.945312 2.050781 C 50.957031 2.25 52.792969 3.046875 54.277344 4.261719 L 53.242188 5.292969 L 54.660156 6.707031 L 55.691406 5.675781 C 56.90625 7.15625 57.707031 8.992188 57.90625 11 L 55.953125 11 L 55.953125 13 L 57.90625 13 C 57.707031 15.007812 56.90625 16.84375 55.691406 18.324219 Z M 47.941406 0 C 41.316406 0 35.925781 5.382812 35.925781 12 C 35.925781 18.617188 41.316406 24 47.941406 24 C 54.570312 24 59.960938 18.617188 59.960938 12 C 59.960938 5.382812 54.570312 0 47.941406 0 " fill-opacity="1" fill-rule="nonzero"/><path fill="#000000" d="M 46.941406 11.585938 L 44.230469 14.292969 L 45.648438 15.707031 L 48.652344 12.707031 C 48.839844 12.519531 48.945312 12.265625 48.945312 12 L 48.945312 6 L 46.941406 6 L 46.941406 11.585938 " fill-opacity="1" fill-rule="nonzero"/><path fill="#000000" d="M 2.679688 15.109375 L 2.121094 10.109375 C 2.089844 9.824219 2.179688 9.546875 2.371094 9.332031 C 2.5625 9.117188 2.828125 9 3.117188 9 L 5.886719 9 C 6.21875 9 6.527344 8.835938 6.714844 8.5625 C 6.902344 8.285156 6.9375 7.9375 6.816406 7.628906 L 5.910156 5.371094 C 5.785156 5.058594 5.824219 4.71875 6.011719 4.441406 C 6.199219 4.160156 6.503906 4 6.839844 4 L 7.320312 4 L 10.035156 8.515625 C 10.214844 8.816406 10.542969 9 10.894531 9 L 13.898438 9 L 13.898438 14 L 10.894531 14 C 10.628906 14 10.371094 14.105469 10.183594 14.292969 L 8.769531 15.707031 C 8.578125 15.894531 8.328125 16 8.058594 16 L 3.671875 16 C 3.160156 16 2.734375 15.617188 2.679688 15.109375 Z M 15.898438 8 L 19.90625 8 L 19.90625 16 L 15.898438 16 Z M 10.183594 17.121094 L 11.308594 16 L 13.898438 16 L 13.898438 17 C 13.898438 17.550781 14.34375 18 14.898438 18 L 20.90625 18 C 21.460938 18 21.90625 17.550781 21.90625 17 L 21.90625 7 C 21.90625 6.449219 21.460938 6 20.90625 6 L 14.898438 6 C 14.34375 6 13.898438 6.449219 13.898438 7 L 11.460938 7 L 8.746094 2.484375 C 8.566406 2.183594 8.238281 2 7.886719 2 L 6.839844 2 C 5.84375 2 4.914062 2.492188 4.351562 3.320312 C 3.792969 4.144531 3.679688 5.1875 4.050781 6.113281 L 4.40625 7 L 3.117188 7 C 2.261719 7 1.445312 7.363281 0.878906 8 C 0.308594 8.632812 0.0351562 9.484375 0.128906 10.332031 L 0.6875 15.332031 C 0.855469 16.851562 2.140625 18 3.671875 18 L 8.058594 18 C 8.863281 18 9.617188 17.6875 10.183594 17.121094 " fill-opacity="1" fill-rule="nonzero"/><path fill="#000000" d="M 25.914062 44 C 25.359375 44 24.910156 44.449219 24.910156 45 C 24.910156 47.625 26.945312 49.78125 29.519531 49.984375 L 27.632812 51.867188 L 18.117188 48.945312 C 17.320312 47.78125 16.902344 46.429688 16.902344 45 C 16.902344 41.140625 20.046875 38 23.910156 38 C 27.433594 38 30.359375 40.613281 30.847656 44 Z M 33.628906 44.292969 C 33.441406 44.105469 33.1875 44 32.921875 44 L 32.867188 44 C 32.367188 39.507812 28.542969 36 23.910156 36 C 18.941406 36 14.898438 40.039062 14.898438 45 C 14.898438 46.15625 15.125 47.296875 15.550781 48.359375 C 14.632812 48.421875 13.765625 48.894531 13.238281 49.6875 L 12.0625 51.445312 C 11.894531 51.695312 11.851562 52.003906 11.9375 52.292969 C 12.023438 52.578125 12.238281 52.8125 12.515625 52.925781 L 29.539062 59.925781 C 29.660156 59.976562 29.789062 60 29.917969 60 C 30.070312 60 30.226562 59.964844 30.367188 59.894531 L 36.164062 57 L 45.941406 57 L 45.941406 55 L 35.925781 55 C 35.769531 55 35.617188 55.035156 35.480469 55.105469 L 29.878906 57.902344 L 14.40625 51.539062 L 14.902344 50.796875 C 15.148438 50.429688 15.609375 50.265625 16.03125 50.394531 L 27.621094 53.957031 C 27.976562 54.066406 28.363281 53.96875 28.625 53.707031 L 32.628906 49.707031 C 32.914062 49.421875 33 48.992188 32.847656 48.617188 C 32.691406 48.242188 32.328125 48 31.921875 48 L 29.917969 48 C 28.613281 48 27.5 47.164062 27.085938 46 L 32.507812 46 L 35.21875 48.707031 C 35.40625 48.894531 35.660156 49 35.925781 49 L 45.941406 49 L 45.941406 47 L 36.339844 47 L 33.628906 44.292969 " fill-opacity="1" fill-rule="nonzero"/><path fill="#000000" d="M 24.84375 24.851562 L 25.515625 23.234375 C 25.636719 22.9375 25.613281 22.601562 25.445312 22.328125 L 24.769531 21.230469 L 25.144531 20.859375 L 26.242188 21.53125 C 26.515625 21.699219 26.851562 21.726562 27.148438 21.601562 L 28.765625 20.933594 C 29.0625 20.8125 29.28125 20.554688 29.355469 20.242188 L 29.65625 19 L 30.183594 19 L 30.480469 20.242188 C 30.554688 20.554688 30.773438 20.8125 31.070312 20.933594 L 32.6875 21.601562 C 32.984375 21.726562 33.320312 21.699219 33.59375 21.53125 L 34.691406 20.859375 L 35.066406 21.230469 L 34.394531 22.328125 C 34.226562 22.601562 34.199219 22.9375 34.320312 23.234375 L 34.992188 24.851562 C 35.113281 25.144531 35.371094 25.363281 35.683594 25.441406 L 36.929688 25.738281 L 36.929688 26.261719 L 35.683594 26.5625 C 35.371094 26.636719 35.113281 26.855469 34.992188 27.152344 L 34.320312 28.765625 C 34.199219 29.0625 34.226562 29.398438 34.394531 29.671875 L 35.066406 30.769531 L 34.691406 31.140625 L 33.59375 30.46875 C 33.320312 30.300781 32.984375 30.273438 32.6875 30.398438 L 31.070312 31.066406 C 30.773438 31.191406 30.554688 31.445312 30.480469 31.757812 L 30.183594 33 L 29.65625 33 L 29.355469 31.757812 C 29.28125 31.445312 29.0625 31.191406 28.765625 31.066406 L 27.148438 30.398438 C 26.851562 30.273438 26.515625 30.300781 26.242188 30.46875 L 25.144531 31.140625 L 24.769531 30.769531 L 25.445312 29.671875 C 25.613281 29.398438 25.636719 29.0625 25.515625 28.765625 L 24.84375 27.152344 C 24.722656 26.855469 24.464844 26.636719 24.152344 26.5625 L 22.910156 26.261719 L 22.910156 25.738281 L 24.152344 25.441406 C 24.464844 25.363281 24.722656 25.144531 24.84375 24.851562 Z M 23.46875 22.9375 L 23.191406 23.613281 L 21.675781 23.976562 C 21.222656 24.085938 20.90625 24.488281 20.90625 24.949219 L 20.90625 27.050781 C 20.90625 27.515625 21.222656 27.917969 21.675781 28.023438 L 23.191406 28.386719 L 23.46875 29.0625 L 22.652344 30.394531 C 22.410156 30.789062 22.46875 31.296875 22.796875 31.625 L 24.285156 33.113281 C 24.613281 33.4375 25.121094 33.5 25.515625 33.257812 L 26.851562 32.441406 L 27.527344 32.71875 L 27.890625 34.234375 C 28 34.683594 28.402344 35 28.867188 35 L 30.972656 35 C 31.433594 35 31.835938 34.683594 31.945312 34.234375 L 32.308594 32.71875 L 32.984375 32.441406 L 34.320312 33.257812 C 34.714844 33.5 35.222656 33.4375 35.550781 33.113281 L 37.039062 31.625 C 37.367188 31.296875 37.429688 30.789062 37.1875 30.394531 L 36.367188 29.0625 L 36.648438 28.386719 L 38.164062 28.023438 C 38.613281 27.917969 38.929688 27.515625 38.929688 27.050781 L 38.929688 24.949219 C 38.929688 24.488281 38.613281 24.085938 38.164062 23.976562 L 36.648438 23.613281 L 36.367188 22.9375 L 37.1875 21.605469 C 37.429688 21.210938 37.367188 20.703125 37.039062 20.375 L 35.550781 18.886719 C 35.222656 18.5625 34.714844 18.5 34.320312 18.742188 L 32.984375 19.558594 L 32.308594 19.28125 L 31.945312 17.765625 C 31.835938 17.316406 31.433594 17 30.972656 17 L 28.867188 17 C 28.402344 17 28 17.316406 27.890625 17.765625 L 27.527344 19.28125 L 26.851562 19.558594 L 25.515625 18.742188 C 25.121094 18.5 24.613281 18.5625 24.285156 18.886719 L 22.796875 20.375 C 22.46875 20.703125 22.410156 21.210938 22.652344 21.605469 L 23.46875 22.9375 " fill-opacity="1" fill-rule="nonzero"/><path fill="#000000" d="M 29.917969 25 C 30.46875 25 30.921875 25.449219 30.921875 26 C 30.921875 26.550781 30.46875 27 29.917969 27 C 29.367188 27 28.917969 26.550781 28.917969 26 C 28.917969 25.449219 29.367188 25 29.917969 25 Z M 29.917969 29 C 31.574219 29 32.921875 27.65625 32.921875 26 C 32.921875 24.347656 31.574219 23 29.917969 23 C 28.261719 23 26.914062 24.347656 26.914062 26 C 26.914062 27.65625 28.261719 29 29.917969 29 " fill-opacity="1" fill-rule="nonzero"/><path fill="#000000" d="M 53.472656 25.199219 C 53.789062 26.769531 53.953125 28.382812 53.953125 30 C 53.953125 36.074219 51.675781 41.871094 47.539062 46.320312 L 49.007812 47.679688 C 53.488281 42.859375 55.953125 36.582031 55.953125 30 C 55.953125 28.25 55.777344 26.5 55.433594 24.800781 L 53.472656 25.199219 " fill-opacity="1" fill-rule="nonzero"/><path fill="#000000" d="M 29.917969 6 C 31.535156 6 33.15625 6.160156 34.726562 6.480469 L 35.125 4.519531 C 33.421875 4.175781 31.671875 4 29.917969 4 C 27.804688 4 25.703125 4.253906 23.671875 4.753906 L 24.148438 6.695312 C 26.027344 6.234375 27.96875 6 29.917969 6 " fill-opacity="1" fill-rule="nonzero"/><path fill="#000000" d="M 12.042969 18.933594 C 9.980469 22.25 8.890625 26.078125 8.890625 30 C 8.890625 33.925781 9.980469 37.75 12.042969 41.070312 L 13.746094 40.011719 C 11.878906 37.011719 10.894531 33.550781 10.894531 30 C 10.894531 26.449219 11.878906 22.988281 13.746094 19.988281 L 12.042969 18.933594 " fill-opacity="1" fill-rule="nonzero"/><path fill="#000000" d="M 44.640625 44.996094 C 48.707031 41.015625 50.949219 35.6875 50.949219 30 C 50.949219 28.585938 50.804688 27.175781 50.527344 25.800781 L 48.5625 26.199219 C 48.816406 27.441406 48.945312 28.71875 48.945312 30 C 48.945312 35.148438 46.917969 39.964844 43.238281 43.570312 L 44.640625 44.996094 " fill-opacity="1" fill-rule="nonzero"/><path fill="#000000" d="M 29.917969 11 C 31.199219 11 32.480469 11.128906 33.726562 11.378906 L 34.125 9.421875 C 32.75 9.140625 31.332031 9 29.917969 9 C 27.765625 9 25.644531 9.324219 23.609375 9.960938 L 24.210938 11.871094 C 26.050781 11.292969 27.96875 11 29.917969 11 " fill-opacity="1" fill-rule="nonzero"/><path fill="#000000" d="M 18.902344 45 C 18.902344 46.21875 19.347656 47.394531 20.15625 48.308594 L 21.65625 46.984375 C 21.171875 46.4375 20.90625 45.730469 20.90625 45 C 20.90625 43.347656 22.253906 42 23.910156 42 C 24.4375 42 24.957031 42.140625 25.410156 42.402344 L 26.414062 40.667969 C 25.65625 40.230469 24.789062 40 23.910156 40 C 21.148438 40 18.902344 42.242188 18.902344 45 " fill-opacity="1" fill-rule="nonzero"/></svg>